<?xml version="1.0" encoding="UTF-8"?>
<svg width="238px" height="253px" viewBox="0 0 238 253" version="1.1" xmlns="http://www.w3.org/2000/svg" xmlns:xlink="http://www.w3.org/1999/xlink">
    <!-- Generator: Sketch 46.2 (44496) - http://www.bohemiancoding.com/sketch -->
    <title>Group 2_404-symbol</title>
    <desc>Created with Sketch.</desc>
    <defs></defs>
    <g id="Wireframes---Desktop" stroke="none" stroke-width="1" fill="none" fill-rule="evenodd" stroke-linecap="round">
        <g id="404" transform="translate(-601.000000, -174.000000)" stroke="#212B36">
            <g id="Group-2" transform="translate(602.500000, 174.821937)">
                <path d="M11.3065247,116.225665 C11.3065247,116.225665 10.6242057,107.239819 0.365686541,104.994099 C10.6212391,102.748379 11.3065247,93.7625338 11.3065247,93.7625338 C11.3065247,93.7625338 11.9888438,102.748379 22.2473629,104.994099 C11.9918104,107.239819 11.3065247,116.225665 11.3065247,116.225665 Z" id="Shape" stroke-width="2" stroke-linejoin="round"></path>
                <path d="M40.2724532,151.080304 C40.2724532,151.080304 39.8808614,145.951044 34.0277503,144.669471 C39.8808614,143.387898 40.2724532,138.258638 40.2724532,138.258638 C40.2724532,138.258638 40.664045,143.387898 46.5171561,144.669471 C40.6610784,145.951044 40.2724532,151.080304 40.2724532,151.080304 Z" id="Shape" stroke-linejoin="round"></path>
                <path d="M217.464786,154.60463 C217.464786,154.60463 217.073195,149.47537 211.220083,148.193797 C217.073195,146.912224 217.464786,141.782964 217.464786,141.782964 C217.464786,141.782964 217.856378,146.912224 223.709489,148.193797 C217.856378,149.47537 217.464786,154.60463 217.464786,154.60463 Z" id="Shape" stroke-linejoin="round"></path>
                <path d="M26.9316318,250.538693 C26.9316318,250.538693 62.5368216,196.647352 130.863661,196.647352 C199.190501,196.647352 234.074806,250.538693 234.074806,250.538693" id="Shape" stroke-width="3" stroke-linejoin="round"></path>
                <path d="M114.283308,199.201599 C114.894428,200.925196 115.223721,202.779324 115.223721,204.710584 C115.223721,213.945624 107.629213,221.430368 98.2636422,221.430368 C90.2419431,221.430368 83.5196168,215.939182 81.754487,208.561237" id="Shape" stroke-width="3" stroke-linejoin="round"></path>
                <circle id="Oval" stroke-width="2" stroke-linejoin="round" cx="130.021146" cy="240.075478" r="10.4661814"></circle>
                <path d="M200.99123,219.359678 C201.810013,221.64693 202.257971,224.115145 202.257971,226.684225 C202.257971,238.675241 192.536407,248.396805 180.545391,248.396805 C168.554374,248.396805 158.832811,238.675241 158.832811,226.684225 C158.832811,216.191344 166.276022,207.436893 176.169649,205.413669" id="Shape" stroke-width="3" stroke-linejoin="round"></path>
                <path d="M45.4462118,35.5043503 C45.4462118,35.5043503 44.3693343,21.3506792 28.213205,17.8115198 C44.3693343,14.2723604 45.4462118,0.118689276 45.4462118,0.118689276 C45.4462118,0.118689276 46.5230893,14.2723604 62.6792186,17.8115198 C46.5230893,21.3506792 45.4462118,35.5043503 45.4462118,35.5043503 Z" id="Shape" stroke-width="4" stroke-linejoin="bevel"></path>
                <g id="Group" transform="translate(74.421040, 1.611683)">
                    <circle id="Oval" stroke-width="3" stroke-linejoin="round" cx="56.0836622" cy="41.4753089" r="25.2754722"></circle>
                    <polyline id="Shape" stroke-width="3" stroke-linejoin="round" points="32.068997 33.6108397 17.8025949 33.6108397 17.8025949 181.691881 46.3294659 181.691881 46.3294659 134.238072 69.4007508 134.238072 69.4007508 181.691881 96.2485235 181.691881 96.2485235 33.6108397 81.3591344 33.6108397"></polyline>
                    <path d="M96,35.9188582 L96,0.470898444" id="Shape" stroke-width="3" stroke-linejoin="round"></path>
                    <path d="M36.7858985,57.7946014 L17.8025949,57.7946014 C17.8025949,57.7946014 0.183929492,58.3612229 0.183929492,75.5615971 C0.183929492,92.7619712 0.183929492,128.417593 0.183929492,128.417593 C0.183929492,128.417593 1.44176989,148.973197 17.8025949,148.973197" id="Shape" stroke-width="3" stroke-linejoin="round"></path>
                    <path d="M77.947539,57.7946014 L96.9308425,57.7946014 C96.9308425,57.7946014 114.549508,58.3612229 114.549508,75.5615971 C114.549508,92.7619712 114.549508,128.417593 114.549508,128.417593 C114.549508,128.417593 113.291668,148.973197 96.9308425,148.973197" id="Shape" stroke-width="3" stroke-linejoin="round"></path>
                    <path d="M17.8025949,119 L0.183929492,119" id="Shape" stroke-width="3" stroke-linejoin="round"></path>
                    <path d="M96.2485235,119 L114.549508,119" id="Shape" stroke-width="3" stroke-linejoin="round"></path>
                    <path d="M17.8025949,160 L46.3294659,160" id="Shape" stroke-width="3" stroke-linejoin="round"></path>
                    <path d="M69.8249752,160 L95.6878352,160" id="Shape" stroke-width="3" stroke-linejoin="round"></path>
                    <path d="M17.8025949,134 L96.2485235,134" id="Shape" stroke-width="3" stroke-linejoin="round"></path>
                    <path d="M62.7407232,98 L96.2485235,98" id="Shape" stroke-width="3" stroke-linejoin="round"></path>
                    <path d="M48.7057163,105 L53.4611836,105" id="Shape" stroke-width="3" stroke-linejoin="round"></path>
                    <rect id="Rectangle-path" stroke-width="3" x="35.2818299" y="79.7323891" width="44.2142767" height="44.2142767"></rect>
                    <path d="M56.0836622,24.6756805 C56.0836622,24.6756805 61.7884431,24.6756805 66.7337731,28.3839364 C71.6791032,32.0921923 72.9132108,38.5208248 72.9132108,38.5208248" id="Shape" stroke-width="2" stroke-linejoin="round"></path>
                </g>
            </g>
        </g>
    </g>
</svg>