
<svg width="17px" height="17px" viewBox="0 0 17 17" version="1.1" xmlns="http://www.w3.org/2000/svg" xmlns:xlink="http://www.w3.org/1999/xlink">
    <!-- Generator: Sketch 46.2 (44496) - http://www.bohemiancoding.com/sketch -->
    <desc>Created with Sketch.</desc>
    <defs></defs>
    <g id="Symbols" stroke="none" stroke-width="1" fill="none" fill-rule="evenodd">
        <g id="Desktop/Nav/White" transform="translate(-1286.000000, -19.000000)" fill-rule="nonzero" fill="#FFFFFF">
            <g id="Icon/Account" transform="translate(1285.639453, 19.500000)">
                <path d="M8.39309211,8.33867277 C10.8030619,8.33867277 12.7567285,6.51912487 12.7567285,4.27459954 C12.7567285,2.03007422 10.8030619,0.210526316 8.39309211,0.210526316 C5.98312229,0.210526316 4.02945574,2.03007422 4.02945574,4.27459954 C4.02945574,6.51912487 5.98312229,8.33867277 8.39309211,8.33867277 Z M0.393092105,15.4508009 C0.393092105,15.6378445 0.555897633,15.7894737 0.756728469,15.7894737 L16.0294557,15.7894737 C16.2302866,15.7894737 16.3930921,15.6378445 16.3930921,15.4508009 L16.3930921,14.7734554 C16.3930921,12.0338142 14.4264236,9.69336384 10.5749103,9.69336384 L6.21127392,9.69336384 C2.35976061,9.69336384 0.393092105,12.0338142 0.393092105,14.7734554 L0.393092105,15.4508009 Z" id="Shape"></path>
            </g>
        </g>
    </g>
</svg>