
<svg width="25px" height="23px" viewBox="0 0 25 23" version="1.1" xmlns="http://www.w3.org/2000/svg" xmlns:xlink="http://www.w3.org/1999/xlink">
    <!-- Generator: Sketch 46.2 (44496) - http://www.bohemiancoding.com/sketch -->
    <desc>Created with Sketch.</desc>
    <defs></defs>
    <g id="Wireframes---Desktop" stroke="none" stroke-width="1" fill="none" fill-rule="evenodd">
        <g id="Home" transform="translate(-915.000000, -3169.000000)" fill-rule="nonzero" fill="#E8D9A0">
            <g id="Newsletter" transform="translate(0.000000, 2908.898438)">
                <g id="Group-16" transform="translate(497.000000, 256.234375)">
                    <path d="M442.122976,15.4489098 C442.132531,15.4261332 442.137309,15.4018871 442.145027,15.3787432 C442.155684,15.3449457 442.168547,15.3122503 442.175897,15.277718 C442.187657,15.218205 442.194272,15.1572226 442.194272,15.0958728 C442.190965,15.0209305 442.186555,14.9669279 442.175897,14.9140275 C442.166709,14.8662701 442.150907,14.8210843 442.134001,14.7762659 C442.102396,14.6914048 442.075568,14.6429127 442.045433,14.5966248 C442.005007,14.5345403 441.966052,14.4867829 441.922319,14.4434339 L431.869609,4.39418612 C431.510557,4.03527129 430.929166,4.03527129 430.570481,4.39418612 C430.211797,4.75310095 430.21143,5.33427112 430.570481,5.69281858 L439.057256,14.1767275 L418.918761,14.1767275 C418.411237,14.1767275 418,14.5878081 418,15.095138 C418,15.602468 418.411237,16.0135485 418.918761,16.0135485 L439.057991,16.0135485 L430.569746,24.4974575 C430.210695,24.8560049 430.210695,25.4375425 430.569746,25.7960899 C430.749089,25.9753637 430.984291,26.0650005 431.219494,26.0650005 C431.454697,26.0650005 431.689532,25.9753637 431.869241,25.7960899 L441.925259,15.7450053 C441.980385,15.6825534 442.01199,15.6469191 442.038818,15.6068764 C442.088431,15.5165048 442.108276,15.4841767 442.122976,15.4489098 Z" id="Shape-Copy"></path>
                </g>
            </g>
        </g>
    </g>
</svg>