<?xml version="1.0" encoding="UTF-8"?>
<svg width="408px" height="80px" viewBox="0 0 408 80" version="1.1" xmlns="http://www.w3.org/2000/svg" xmlns:xlink="http://www.w3.org/1999/xlink">
    <!-- Generator: Sketch 47 (45396) - http://www.bohemiancoding.com/sketch -->
    <title>Untitled</title>
    <desc>Created with Sketch.</desc>
    <defs></defs>
    <g id="Page-1" stroke="none" stroke-width="1" fill="none" fill-rule="evenodd">
        <g id="logo_color" fill-rule="nonzero">
            <polygon id="Shape" fill="#000000" points="0.9 36.1 3.5 36.1 27.4 67.6 27.6 67.6 27.6 36.1 30.2 36.1 30.2 79.9 28.8 79.9 3.7 45.9 3.5 45.9 3.5 79.9 0.8 79.9 0.8 36.1"></polygon>
            <path d="M57.2,79.9 C55.4,79.9 53.6,79.6 51.9,79.1 C50.2,78.6 48.7,77.8 47.2,76.9 C45.8,75.9 44.4,74.8 43.3,73.4 C42.1,72 41.1,70.6 40.3,68.9 C39.5,67.2 38.8,65.5 38.4,63.6 C37.9,61.7 37.7,59.8 37.7,57.7 C37.7,55.7 37.9,53.8 38.4,51.9 C38.9,50.1 39.5,48.3 40.3,46.7 C41.1,45.1 42.1,43.6 43.3,42.3 C44.5,41 45.8,39.9 47.2,38.9 C48.6,38 50.2,37.2 51.9,36.7 C53.6,36.2 55.3,35.9 57.2,35.9 C59.1,35.9 60.8,36.2 62.5,36.7 C64.2,37.2 65.7,37.9 67.2,38.9 C68.7,39.9 70,41 71.1,42.3 C72.3,43.6 73.3,45.1 74.1,46.7 C74.9,48.3 75.6,50 76,51.9 C76.5,53.7 76.7,55.7 76.7,57.7 C76.7,59.7 76.5,61.7 76,63.6 C75.5,65.5 74.9,67.3 74.1,68.9 C73.3,70.5 72.3,72 71.1,73.4 C69.9,74.8 68.6,75.9 67.2,76.9 C65.8,77.9 64.2,78.6 62.5,79.1 C60.7,79.6 59,79.9 57.2,79.9 Z M57.2,77.8 C59.2,77.8 61,77.3 62.6,76.3 C64.2,75.3 65.5,73.9 66.5,72.1 C67.6,70.3 68.4,68.2 68.9,65.8 C69.5,63.3 69.7,60.7 69.7,57.8 C69.7,54.9 69.4,52.3 68.9,49.9 C68.3,47.5 67.5,45.4 66.5,43.7 C65.4,42 64.1,40.6 62.6,39.7 C61,38.7 59.3,38.3 57.2,38.3 C55.1,38.3 53.3,38.8 51.8,39.7 C50.2,40.7 48.9,42 47.9,43.7 C46.9,45.4 46.1,47.5 45.5,49.9 C45,52.3 44.7,54.9 44.7,57.8 C44.7,60.7 45,63.4 45.5,65.8 C46,68.3 46.8,70.4 47.9,72.1 C48.9,73.9 50.3,75.3 51.8,76.3 C53.3,77.3 55.1,77.8 57.2,77.8 Z" id="Shape" fill="#000000"></path>
            <path d="M109,77.2 C109.9,77.2 110.7,77.1 111.6,76.8 C112.5,76.5 113.2,76.1 113.9,75.5 C114.6,74.9 115.1,74.3 115.5,73.4 C115.9,72.6 116.1,71.7 116.1,70.6 C116.1,69.3 115.8,68.2 115.3,67.2 C114.7,66.2 114,65.3 113.1,64.5 C112.2,63.7 111.2,62.9 110,62.1 C108.8,61.4 107.6,60.6 106.4,59.9 C105.2,59.2 104,58.4 102.8,57.6 C101.6,56.8 100.6,55.9 99.7,54.9 C98.8,53.9 98.1,52.8 97.5,51.6 C96.9,50.4 96.7,49 96.7,47.4 C96.7,45.8 97,44.3 97.5,42.9 C98,41.5 98.8,40.3 99.7,39.3 C100.7,38.3 101.9,37.5 103.3,36.9 C104.7,36.3 106.4,36 108.2,36 C111.6,36 114.2,36.8 116.1,38.5 C118,40.2 119.4,42.6 120.3,45.7 L117.3,47.4 C116.9,46.1 116.5,44.9 115.9,43.9 C115.3,42.8 114.7,41.9 113.9,41.2 C113.1,40.4 112.2,39.9 111.2,39.4 C110.2,39 109.1,38.8 107.8,38.8 C106.7,38.8 105.7,39 104.9,39.4 C104.1,39.8 103.4,40.3 102.8,40.8 C102.2,41.4 101.8,42.1 101.6,42.8 C101.3,43.6 101.2,44.3 101.2,45.1 C101.2,46.2 101.5,47.2 102.1,48.1 C102.7,49 103.4,49.9 104.4,50.7 C105.3,51.5 106.4,52.3 107.6,53.1 C108.8,53.9 110,54.6 111.3,55.4 C112.5,56.2 113.8,57 115,57.8 C116.2,58.6 117.3,59.6 118.2,60.6 C119.1,61.6 119.9,62.7 120.5,63.9 C121.1,65.1 121.4,66.4 121.4,67.9 C121.4,69.6 121.1,71.1 120.6,72.6 C120.1,74.1 119.3,75.3 118.2,76.4 C117.1,77.5 115.8,78.4 114.2,79 C112.6,79.6 110.8,79.9 108.7,79.9 C107,79.9 105.5,79.7 104.2,79.2 C102.9,78.8 101.7,78.1 100.7,77.3 C99.7,76.5 98.8,75.4 98.1,74.2 C97.4,73 96.8,71.6 96.3,70.1 L99.5,68.5 C99.9,69.9 100.4,71.1 101,72.2 C101.6,73.3 102.4,74.2 103.2,74.9 C104,75.7 105,76.2 106,76.6 C106.7,77 107.8,77.2 109,77.2 Z" id="Shape" fill="#000000"></path>
            <polygon id="Shape" fill="#000000" points="128 36.1 133.7 36.1 147.9 69.2 148.2 69.2 162.1 36.1 167.7 36.1 167.7 79.9 161.7 79.9 161.7 44.6 161.5 44.6 146.2 79.9 146.2 79.9 131.1 44.9 130.7 44.9 130.7 79.9 128 79.9"></polygon>
            <path d="M190.7,36.1 L207.8,79.9 L201.7,79.9 L195.9,64.9 L180.7,64.9 L174.7,79.9 L171.7,79.9 L189.2,36.1 L190.7,36.1 L190.7,36.1 Z M181.7,62.2 L194.7,62.2 L188.3,45.7 L181.7,62.2 Z" id="Shape" fill="#000000"></path>
            <polygon id="Shape" fill="#000000" points="211.9 36.1 217.8 36.1 217.8 77.2 235.6 77.2 235.6 79.9 211.8 79.9"></polygon>
            <polygon id="Shape" fill="#000000" points="240.6 36.1 246.5 36.1 246.5 77.2 264.3 77.2 264.3 79.9 240.5 79.9"></polygon>
            <path d="M284.6,36.1 L295.8,36.1 C297.6,36.1 299.4,36.4 301,36.9 C302.6,37.4 304,38.2 305.2,39.2 C306.4,40.2 307.3,41.5 308,43 C308.7,44.5 309,46.2 309,48.1 C309,50 308.7,51.7 308,53.1 C307.3,54.5 306.4,55.7 305.4,56.6 C304.3,57.5 303.1,58.2 301.7,58.7 C300.3,59.2 298.9,59.4 297.4,59.4 C296.8,59.4 296.1,59.4 295.5,59.3 C294.8,59.3 294.2,59.2 293.5,59.1 C292.9,59 292.3,59 291.8,58.9 C291.3,58.8 290.8,58.7 290.5,58.6 L290.4,80 L284.6,80 L284.6,36.1 Z M290.5,56.2 C291.2,56.4 291.9,56.6 292.6,56.8 C293.4,57 294.2,57.1 295,57.1 C296.3,57.1 297.4,56.9 298.4,56.4 C299.4,56 300.2,55.3 300.8,54.5 C301.4,53.7 301.9,52.8 302.2,51.7 C302.5,50.6 302.7,49.5 302.7,48.3 C302.7,46.9 302.5,45.6 302.1,44.5 C301.7,43.3 301.1,42.4 300.4,41.6 C299.7,40.8 298.9,40.2 297.9,39.7 C296.9,39.3 295.9,39 294.8,39 L290.6,39 L290.6,56.2 L290.5,56.2 Z" id="Shape" fill="#00A79D"></path>
            <polygon id="Shape" fill="#00A79D" points="314.3 36.1 320.2 36.1 320.2 77.2 338 77.2 338 79.9 314.2 79.9"></polygon>
            <path d="M359.2,36.1 L376.3,79.9 L370.2,79.9 L364.4,64.9 L349.2,64.9 L343.2,79.9 L340.2,79.9 L357.6,36.1 L359.2,36.1 L359.2,36.1 Z M350.3,62.2 L363.3,62.2 L356.9,45.7 L350.3,62.2 Z" id="Shape" fill="#00A79D"></path>
            <polygon id="Shape" fill="#00A79D" points="378.5 36.1 381.1 36.1 405 67.6 405.2 67.6 405.2 0.2 407.8 0.2 407.8 79.8 406.4 79.8 381.3 45.8 381.1 45.8 381.1 79.8 378.4 79.8 378.4 36.1"></polygon>
        </g>
        <text id="Type-something" font-family="Helvetica" font-size="25" font-weight="normal" letter-spacing="1.666666" fill="#FFFFFF">
            <tspan x="115.082606" y="-1">Type something</tspan>
        </text>
    </g>
</svg>