<?xml version="1.0" encoding="utf-8"?>
<!-- Generator: Adobe Illustrator 21.0.2, SVG Export Plug-In . SVG Version: 6.00 Build 0)  -->
<svg version="1.1" id="Layer_1" xmlns="http://www.w3.org/2000/svg" xmlns:xlink="http://www.w3.org/1999/xlink" x="0px" y="0px"
	 viewBox="0 0 454.3 88.9" style="enable-background:new 0 0 454.3 88.9;" xml:space="preserve">
<style type="text/css">
	.st0{fill:#FFFFFF;}
</style>
<g>
	<path class="st0" d="M0,40h2.9l26.7,35.2h0.3V40h2.9v48.9h-1.5l-28.1-38H3v38H0V40z"/>
	<path class="st0" d="M62.8,88.9c-2,0-4-0.3-5.9-0.9s-3.6-1.4-5.2-2.5c-1.6-1.1-3.1-2.4-4.4-3.9c-1.3-1.5-2.5-3.2-3.4-5
		s-1.6-3.8-2.2-5.9c-0.5-2.1-0.8-4.3-0.8-6.6c0-2.2,0.3-4.4,0.8-6.4c0.5-2.1,1.2-4,2.2-5.8c0.9-1.8,2.1-3.4,3.4-4.9
		c1.3-1.5,2.8-2.7,4.4-3.8c1.6-1,3.3-1.9,5.2-2.4c1.9-0.6,3.8-0.9,5.9-0.9c2,0,4,0.3,5.9,0.9c1.9,0.6,3.6,1.4,5.2,2.4
		s3.1,2.3,4.4,3.8s2.4,3.1,3.4,4.9c0.9,1.8,1.6,3.7,2.2,5.8c0.5,2.1,0.8,4.2,0.8,6.4c0,2.3-0.3,4.4-0.8,6.6
		c-0.5,2.1-1.2,4.1-2.2,5.9c-0.9,1.8-2.1,3.5-3.4,5s-2.8,2.8-4.4,3.9s-3.3,1.9-5.2,2.5S64.9,88.9,62.8,88.9z M62.8,86.5
		c2.3,0,4.2-0.6,6-1.7c1.7-1.1,3.2-2.7,4.4-4.7c1.2-2,2.1-4.4,2.7-7.1s0.9-5.7,0.9-9c0-3.2-0.3-6.1-0.9-8.8s-1.5-5-2.7-6.9
		s-2.6-3.4-4.4-4.5s-3.7-1.6-6-1.6c-2.3,0-4.3,0.5-6.1,1.6s-3.2,2.6-4.4,4.5s-2.1,4.2-2.7,6.9c-0.6,2.7-0.9,5.6-0.9,8.8
		c0,3.2,0.3,6.2,0.9,9c0.6,2.7,1.5,5.1,2.7,7.1s2.6,3.5,4.4,4.7C58.5,86,60.5,86.5,62.8,86.5z"/>
	<path class="st0" d="M120.7,85.9c1,0,2-0.2,2.9-0.5c1-0.3,1.8-0.8,2.6-1.4c0.7-0.6,1.3-1.4,1.8-2.3s0.7-1.9,0.7-3.1
		c0-1.4-0.3-2.7-0.9-3.8c-0.6-1.1-1.4-2.1-2.5-3.1c-1-0.9-2.2-1.8-3.5-2.6c-1.3-0.8-2.6-1.6-4-2.5c-1.4-0.8-2.7-1.7-4-2.6
		s-2.5-1.9-3.5-3s-1.8-2.3-2.5-3.7c-0.6-1.4-0.9-3-0.9-4.7c0-1.8,0.3-3.4,0.9-5s1.4-2.9,2.5-4s2.4-2,4-2.6s3.4-1,5.5-1
		c3.7,0,6.7,0.9,8.9,2.8c2.2,1.9,3.7,4.5,4.7,8l-3.4,1.8c-0.4-1.4-0.9-2.7-1.5-3.9c-0.6-1.2-1.4-2.2-2.2-3.1c-0.9-0.8-1.8-1.5-3-2
		c-1.1-0.5-2.4-0.7-3.8-0.7c-1.2,0-2.3,0.2-3.3,0.6c-0.9,0.4-1.7,0.9-2.3,1.6c-0.6,0.7-1.1,1.4-1.4,2.2S112,49,112,49.9
		c0,1.2,0.3,2.4,1,3.4c0.6,1,1.5,2,2.5,2.9s2.2,1.8,3.6,2.6c1.3,0.8,2.7,1.7,4.1,2.6c1.4,0.9,2.8,1.8,4.1,2.7c1.3,0.9,2.5,2,3.6,3.1
		c1,1.1,1.9,2.3,2.5,3.7c0.6,1.3,1,2.8,1,4.4c0,1.9-0.3,3.6-0.9,5.2c-0.6,1.6-1.5,3-2.7,4.3c-1.2,1.2-2.7,2.2-4.4,2.9
		c-1.8,0.7-3.8,1.1-6.2,1.1c-1.9,0-3.6-0.2-5.1-0.7s-2.8-1.2-4-2.1c-1.1-0.9-2.1-2.1-2.9-3.5s-1.5-2.9-2-4.6l3.6-1.7
		c0.4,1.5,1,2.9,1.7,4.1s1.5,2.2,2.5,3.1c0.9,0.8,2,1.5,3.1,1.9S119.4,85.9,120.7,85.9z"/>
	<path class="st0" d="M141.9,40h6.3L164,76.9h0.3L179.9,40h6.2v48.9h-6.7V49.5h-0.2l-17.1,39.4l0,0l-16.9-39.1h-0.5v39.1h-2.9
		L141.9,40L141.9,40z"/>
	<path class="st0" d="M211.9,40L231,88.9h-6.8l-6.5-16.7h-16.9l-6.7,16.7h-3.3L210.2,40H211.9z M201.9,69.2h14.6l-7.2-18.5
		L201.9,69.2z"/>
	<path class="st0" d="M235.6,40h6.6v45.9h19.9v3h-26.5V40z"/>
	<path class="st0" d="M267.7,40h6.6v45.9h19.9v3h-26.5V40z"/>
	<path class="st0" d="M316.7,40h12.5c2.1,0,4,0.3,5.8,0.9c1.8,0.6,3.4,1.5,4.7,2.6c1.3,1.1,2.4,2.5,3.2,4.2c0.8,1.7,1.2,3.5,1.2,5.7
		c0,2.1-0.4,4-1.1,5.5c-0.7,1.6-1.7,2.9-3,3.9c-1.2,1-2.6,1.8-4.2,2.3s-3.1,0.8-4.8,0.8c-0.7,0-1.4,0-2.2-0.1
		c-0.8,0-1.5-0.1-2.2-0.2s-1.3-0.2-1.9-0.3c-0.6-0.1-1.1-0.2-1.4-0.3l-0.1,23.9h-6.5V40z M323.4,62.4c0.7,0.2,1.5,0.5,2.4,0.7
		s1.7,0.3,2.6,0.3c1.4,0,2.7-0.3,3.8-0.8c1.1-0.5,2-1.2,2.7-2.1c0.7-0.9,1.2-1.9,1.6-3.1c0.3-1.2,0.5-2.4,0.5-3.8
		c0-1.6-0.2-3-0.7-4.3s-1.1-2.4-1.9-3.3c-0.8-0.9-1.7-1.6-2.8-2.1c-1.1-0.5-2.2-0.7-3.5-0.7h-4.7V62.4z"/>
	<path class="st0" d="M349.9,40h6.6v45.9h19.9v3h-26.5V40z"/>
	<path class="st0" d="M400.1,40l19,48.9h-6.8l-6.5-16.7h-16.9l-6.7,16.7h-3.3L398.4,40H400.1z M390.1,69.2h14.6l-7.2-18.5
		L390.1,69.2z"/>
	<path class="st0" d="M421.5,40h2.9l26.7,35.2h0.3V0h2.9v88.9h-1.5l-28.1-38h-0.2v38h-3L421.5,40L421.5,40z"/>
</g>
</svg>
