<?xml version="1.0" encoding="UTF-8"?>
<svg width="147px" height="124px" viewBox="0 0 147 124" version="1.1" xmlns="http://www.w3.org/2000/svg" xmlns:xlink="http://www.w3.org/1999/xlink">
    <!-- Generator: Sketch 46.2 (44496) - http://www.bohemiancoding.com/sketch -->
    <title>Group_icon</title>
    <desc>Created with Sketch.</desc>
    <defs></defs>
    <g id="Symbols" stroke="none" stroke-width="1" fill="none" fill-rule="evenodd">
        <g id="Map/Existing-deselected" transform="translate(-42.000000, -35.000000)" fill-rule="nonzero" stroke="#FFFFFF">
            <g id="Group" transform="translate(42.000000, 35.628906)">
                <polygon id="Shape" points="22.8905403 55.3041314 0.74319936 122.489354 34.0385307 112.084562 45.0378812 45.1966201"></polygon>
                <path d="M38.3187881,111.885233 L71.1444183,122.107249 L71.1444183,55.3298556 L49.2898292,45.4738644 L38.3187881,111.885233 Z" id="Shape"></path>
                <path d="M97.0618364,63.6279642 L89.4812029,48.6153372 L75.509055,55.0068517 L75.509055,122.786633 L109.398946,112.233202 L101.966952,67.343961 C99.885994,67.0466813 98.1023155,65.7089224 97.0618364,63.6279642 Z" id="Shape"></path>
                <path d="M123.857126,55.6701575 L115.870828,52.0900929 C114.822236,54.143376 112.282224,59.1339294 111.776249,60.1213964 C110.517321,62.5783365 109.927742,63.6944573 109.677133,64.0406428 C108.948374,65.4739152 107.694833,66.6672772 106.239727,67.3497763 L113.558115,111.699208 L145.63083,121.721932 L123.857126,55.6701575 Z" id="Shape"></path>
                <path d="M100.480553,61.9929256 C101.669672,64.2225237 104.93975,64.2225237 105.980229,61.9929256 C105.980229,61.9929256 119.060537,36.5755075 122.033335,30.4812728 C125.006132,24.5356779 125.154772,17.6982438 122.033335,11.604009 C116.830939,1.199218 104.19655,-2.96269842 93.7917592,2.2396971 C83.3869682,7.44209262 79.3736916,20.5224014 84.4274473,30.4812728 C89.4812029,40.5887841 100.480553,61.9929256 100.480553,61.9929256 Z M103.304711,10.1176103 C109.398946,10.1176103 114.304062,15.0227261 114.304062,21.1169608 C114.304062,27.2111956 109.398946,32.1163114 103.304711,32.1163114 C97.2104763,32.1163114 92.3053605,27.2111956 92.3053605,21.1169608 C92.3053605,15.0227261 97.2104763,10.1176103 103.304711,10.1176103 Z" id="Shape"></path>
            </g>
        </g>
    </g>
</svg>