<?xml version="1.0" encoding="UTF-8"?>
<svg width="39px" height="38px" viewBox="0 0 39 38" version="1.1" xmlns="http://www.w3.org/2000/svg" xmlns:xlink="http://www.w3.org/1999/xlink">
    <!-- Generator: Sketch 46.2 (44496) - http://www.bohemiancoding.com/sketch -->
    <title>Icon/Account_icon</title>
    <desc>Created with Sketch.</desc>
    <defs></defs>
    <g id="Symbols" stroke="none" stroke-width="1" fill="none" fill-rule="evenodd">
        <g id="Icon/Account" fill-rule="nonzero" fill="#212B36">
            <path d="M19.9335938,19.8043478 C25.6572721,19.8043478 30.2972301,15.4829216 30.2972301,10.1521739 C30.2972301,4.82142626 25.6572721,0.5 19.9335938,0.5 C14.2099154,0.5 9.56995739,4.82142626 9.56995739,10.1521739 C9.56995739,15.4829216 14.2099154,19.8043478 19.9335938,19.8043478 Z M0.93359375,36.6956522 C0.93359375,37.1398806 1.32025688,37.5 1.79723011,37.5 L38.0699574,37.5 C38.5469306,37.5 38.9335938,37.1398806 38.9335938,36.6956522 L38.9335938,35.0869565 C38.9335938,28.5803087 34.262756,23.0217391 25.1154119,23.0217391 L14.7517756,23.0217391 C5.60443146,23.0217391 0.93359375,28.5803087 0.93359375,35.0869565 L0.93359375,36.6956522 Z" id="Shape"></path>
        </g>
    </g>
</svg>