<?xml version="1.0" encoding="UTF-8"?>
<svg width="49px" height="39px" viewBox="0 0 49 39" version="1.1" xmlns="http://www.w3.org/2000/svg" xmlns:xlink="http://www.w3.org/1999/xlink">
    <!-- Generator: Sketch 46.2 (44496) - http://www.bohemiancoding.com/sketch -->
    <title>Icon/Bag/Dark_icon</title>
    <desc>Created with Sketch.</desc>
    <defs></defs>
    <g id="Symbols" stroke="none" stroke-width="1" fill="none" fill-rule="evenodd">
        <g id="Icon/Bag/Dark" fill-rule="nonzero">
            <path d="M33.9335937,1.6 C33.7335937,1 33.1335937,0.7 32.5335937,0.7 L17.3335937,0.7 C16.7335937,0.7 16.1335937,1.1 15.9335937,1.6 L13.9335937,6.5 L11.9335937,6.5 L16.0335937,10.6 L20.8335937,9.7 C21.1335937,9.6 21.5335937,9.7 21.7335937,10 L29.5335937,17.8 C29.9335937,18.2 29.9335937,18.8 29.5335937,19.2 L23.2335937,25.5 C22.8335937,25.9 22.2335937,25.9 21.8335937,25.5 L14.0335937,17.7 C13.8335937,17.5 13.7335937,17.1 13.7335937,16.8 L14.6335937,12 L10.5335937,7.9 L10.5335937,38.3 L39.3335937,38.3 L39.3335937,6.5 L35.9335937,6.5 L33.9335937,1.6 Z M17.2335937,6.5 L18.4335937,3.7 L31.6335937,3.7 L32.8335937,6.5 L17.2335937,6.5 Z" id="Shape" fill="#212B36"></path>
            <polygon id="Shape" fill="#00A79D" points="27.3335938 18.5 20.6335938 11.8 16.5335938 12.5 15.8335938 16.6 22.5335938 23.3"></polygon>
            <path d="M45.9335938,6.5 L41.3335938,6.5 L41.3335938,38.3 L45.9335938,38.3 C47.6335938,38.3 48.9335938,37 48.9335938,35.3 L48.9335938,9.5 C48.9335938,7.8 47.6335938,6.5 45.9335938,6.5 Z" id="Shape" fill="#212B36"></path>
            <path d="M0.93359375,9.5 L0.93359375,35.3 C0.93359375,37 2.23359375,38.3 3.93359375,38.3 L8.53359375,38.3 L8.53359375,6.5 L3.93359375,6.5 C2.23359375,6.5 0.93359375,7.8 0.93359375,9.5 Z" id="Shape" fill="#212B36"></path>
        </g>
    </g>
</svg>