
<svg width="21px" height="17px" viewBox="0 0 21 17" version="1.1" xmlns="http://www.w3.org/2000/svg" xmlns:xlink="http://www.w3.org/1999/xlink">
    <!-- Generator: Sketch 46.2 (44496) - http://www.bohemiancoding.com/sketch -->
    <desc>Created with Sketch.</desc>
    <defs></defs>
    <g id="Symbols" stroke="none" stroke-width="1" fill="none" fill-rule="evenodd">
        <g id="Desktop/Nav/White" transform="translate(-1371.000000, -19.000000)" fill-rule="nonzero">
            <g id="Group-2" transform="translate(1371.448828, 19.500000)">
                <g id="Icon/Bag/White" transform="translate(0.007812, 0.000000)">
                    <path d="M13.8504464,0.656410256 C13.7688138,0.41025641 13.5239158,0.287179487 13.2790179,0.287179487 L7.07493622,0.287179487 C6.83003827,0.287179487 6.58514031,0.451282051 6.50350765,0.656410256 L5.68718112,2.66666667 L4.87085459,2.66666667 L6.54432398,4.34871795 L8.50350765,3.97948718 C8.62595663,3.93846154 8.78922194,3.97948718 8.87085459,4.1025641 L12.0545281,7.3025641 C12.2177934,7.46666667 12.2177934,7.71282051 12.0545281,7.87692308 L9.48309949,10.4615385 C9.31983418,10.625641 9.07493622,10.625641 8.91167092,10.4615385 L5.72799745,7.26153846 C5.6463648,7.17948718 5.60554847,7.01538462 5.60554847,6.89230769 L5.97289541,4.92307692 L4.29942602,3.24102564 L4.29942602,15.7128205 L16.0545281,15.7128205 L16.0545281,2.66666667 L14.666773,2.66666667 L13.8504464,0.656410256 Z M7.0341199,2.66666667 L7.52391582,1.51794872 L12.9116709,1.51794872 L13.4014668,2.66666667 L7.0341199,2.66666667 Z" id="Shape" fill="#FFFFFF"></path>
                    <polygon id="Shape" fill="#00A79D" points="11.1565689 7.58974359 8.421875 4.84102564 6.74840561 5.12820513 6.46269133 6.81025641 9.1973852 9.55897436"></polygon>
                    <path d="M18.7484056,2.66666667 L16.8708546,2.66666667 L16.8708546,15.7128205 L18.7484056,15.7128205 C19.4422832,15.7128205 19.9728954,15.1794872 19.9728954,14.4820513 L19.9728954,3.8974359 C19.9728954,3.2 19.4422832,2.66666667 18.7484056,2.66666667 Z" id="Shape" fill="#FFFFFF"></path>
                    <path d="M0.381058673,3.8974359 L0.381058673,14.4820513 C0.381058673,15.1794872 0.911670918,15.7128205 1.60554847,15.7128205 L3.48309949,15.7128205 L3.48309949,2.66666667 L1.60554847,2.66666667 C0.911670918,2.66666667 0.381058673,3.2 0.381058673,3.8974359 Z" id="Shape" fill="#FFFFFF"></path>
                </g>
            </g>
        </g>
    </g>
</svg>