<svg width="21" height="20" viewBox="0 0 21 20" xmlns="http://www.w3.org/2000/svg"><title>instagram_icon</title><path d="M5.667.117a4.768 4.768 0 0 0-4.76 4.76v10.08a4.768 4.768 0 0 0 4.76 4.76h10.08a4.768 4.768 0 0 0 4.76-4.76V4.877a4.768 4.768 0 0 0-4.76-4.76H5.667zm0 1.68h10.08c1.72 0 3.08 1.36 3.08 3.08v10.08c0 1.721-1.36 3.08-3.08 3.08H5.667c-1.72 0-3.08-1.359-3.08-3.08V4.877c0-1.72 1.36-3.08 3.08-3.08zm10.64 1.68a1.12 1.12 0 1 0 0 2.24 1.12 1.12 0 0 0 0-2.24zm-5.6 1.68a4.773 4.773 0 0 0-4.76 4.76 4.773 4.773 0 0 0 4.76 4.76 4.773 4.773 0 0 0 4.76-4.76 4.773 4.773 0 0 0-4.76-4.76zm0 1.68a3.067 3.067 0 0 1 3.08 3.08 3.067 3.067 0 0 1-3.08 3.08 3.067 3.067 0 0 1-3.08-3.08 3.067 3.067 0 0 1 3.08-3.08z" fill-rule="nonzero" fill="#FFF"/></svg>