<svg width="20" height="20" viewBox="0 0 20 20" xmlns="http://www.w3.org/2000/svg"><title>pinterest_icon</title><path d="M9.8.117C4.388.117 0 4.504 0 9.917c0 4.152 2.583 7.698 6.229 9.126-.086-.775-.164-1.965.034-2.81.178-.766 1.15-4.872 1.15-4.872s-.294-.587-.294-1.455c0-1.362.79-2.38 1.773-2.38.835 0 1.24.628 1.24 1.38 0 .84-.535 2.097-.812 3.263-.231.975.489 1.771 1.451 1.771 1.742 0 3.08-1.837 3.08-4.488 0-2.346-1.685-3.987-4.093-3.987-2.788 0-4.424 2.092-4.424 4.253 0 .842.324 1.746.729 2.236.08.097.091.183.068.282l-.272 1.11c-.044.18-.142.218-.329.132-1.224-.57-1.989-2.36-1.989-3.797 0-3.091 2.246-5.93 6.475-5.93 3.4 0 6.042 2.423 6.042 5.66 0 3.378-2.129 6.095-5.085 6.095-.993 0-1.927-.515-2.246-1.125l-.611 2.33c-.221.852-.818 1.92-1.218 2.57a9.822 9.822 0 0 0 2.902.436c5.412 0 9.8-4.388 9.8-9.8 0-5.413-4.388-9.8-9.8-9.8z" fill-rule="nonzero" fill="#FFF"/></svg>