<svg width="24" height="20" viewBox="0 0 24 20" xmlns="http://www.w3.org/2000/svg"><title>Twitter_icon</title><path d="M19.69 1.678c-.853-.96-2.072-1.56-3.42-1.56-2.586 0-4.685 2.215-4.685 4.947 0 .388.04.764.12 1.127C7.812 5.985 4.36 4.018 2.047 1.02a5.154 5.154 0 0 0-.634 2.49c0 1.716.827 3.231 2.085 4.118a4.501 4.501 0 0 1-2.124-.616v.06c0 2.398 1.615 4.4 3.76 4.852a4.439 4.439 0 0 1-2.117.087c.597 1.964 2.327 3.396 4.378 3.434-1.603 1.328-3.625 2.119-5.82 2.119-.378 0-.752-.023-1.118-.068 2.074 1.402 4.538 2.221 7.184 2.221 8.62 0 13.333-7.538 13.333-14.077 0-.216-.004-.43-.012-.642a9.788 9.788 0 0 0 2.337-2.56c-.84.393-1.743.659-2.691.778A4.92 4.92 0 0 0 22.667.48a9.058 9.058 0 0 1-2.977 1.2z" fill="#FFF" fill-rule="evenodd"/></svg>